<svg width="512" height="512" viewBox="0 0 512 512" fill="none" xmlns="http://www.w3.org/2000/svg">
<rect width="512" height="512" rx="256" fill="#E1E2DA"/>
<path d="M226.67 193.787C231.297 203.958 237.576 213.494 244.847 222.394L245.508 223.029L246.5 222.394C260.051 214.13 270.297 204.594 277.237 193.469C284.178 182.663 287.483 172.174 287.483 162.32C287.483 152.785 284.508 145.156 278.559 138.8C272.61 132.76 264.678 129.582 254.432 129.582C243.856 129.582 235.263 133.078 228.983 140.389C222.703 147.381 219.729 156.281 219.729 166.77C219.729 174.399 222.042 183.616 226.67 193.787ZM301.695 350.487C291.119 360.34 282.856 365.743 270.958 371.465C257.737 377.822 241.873 381 223.364 381C213.119 381 203.534 379.729 194.61 377.504C185.686 375.279 177.754 371.147 171.144 366.061C164.534 360.976 158.915 354.301 154.949 346.354C150.983 338.408 149 329.191 149 318.702C149 310.438 150.983 302.491 154.288 294.545C157.924 286.599 162.881 278.971 169.492 271.978C175.771 264.985 183.373 258.311 191.966 252.589C200.559 246.868 210.144 241.782 220.39 237.968L221.712 237.333L221.051 236.379C213.449 225.89 207.169 215.719 202.212 205.866C197.254 196.33 194.941 186.795 194.941 177.259C194.941 169.313 196.593 162.002 199.568 155.328C202.542 148.653 206.839 142.614 212.127 137.528C217.415 132.443 223.695 128.311 230.966 125.45C238.237 122.589 246.169 121 255.093 121C269.966 121 282.525 124.496 292.11 131.489C301.695 138.482 306.652 148.971 306.652 162.32C306.652 169.313 305 175.988 301.695 182.345C298.39 188.702 293.763 195.059 288.475 200.462C283.186 206.183 277.237 211.269 270.958 216.037C264.678 220.804 226.67 244.325 226.67 244.325C212.127 252.589 200.559 262.125 192.297 271.978C184.034 282.149 179.737 295.181 179.737 311.073C179.737 318.066 181.39 325.059 184.034 331.416C187.008 338.09 190.974 343.812 196.263 348.897C201.551 353.983 207.831 358.115 215.102 360.976C222.373 363.836 230.305 365.425 238.898 365.425C252.449 365.425 264.347 362.883 273.932 358.115C282.195 353.983 288.144 350.169 296.076 342.54L301.695 350.487ZM330.119 322.834C341.025 310.755 350.941 298.677 358.873 287.553C366.805 276.428 375.068 264.667 383 252.907C380.356 251 377.712 249.093 375.398 246.868C373.085 244.961 371.102 242.418 369.78 239.875C363.83 252.907 356.89 264.985 349.288 276.428C341.356 288.188 332.763 300.902 323.178 313.616L322.517 314.57L321.525 313.616C309.627 301.22 298.059 287.87 286.491 273.567C275.254 259.582 268.644 252.271 257.076 237.65L233.28 253.225C244.186 267.846 252.119 278.335 263.356 292.002C275.254 306.941 288.144 322.198 301.695 337.455C301.695 337.455 320.534 358.433 324.83 364.154C328.797 369.557 332.102 373.689 334.085 376.55C337.72 376.232 341.356 375.914 344.991 375.914H369.119C372.424 375.914 375.729 375.914 379.034 376.232L329.458 323.787L330.119 322.834Z" fill="#414042"/>
</svg>
