<svg width="157" height="36" viewBox="0 0 157 36" fill="none" xmlns="http://www.w3.org/2000/svg">
  <path
    d="M136.655 10.766C137.257 12.091 138.074 13.3332 139.02 14.4927L139.106 14.5755L139.235 14.4927C140.999 13.4161 142.332 12.1738 143.236 10.7246C144.139 9.31671 144.569 7.95026 144.569 6.66662C144.569 5.42439 144.182 4.43061 143.408 3.60246C142.633 2.81572 141.601 2.40164 140.268 2.40164C138.891 2.40164 137.773 2.85712 136.956 3.8095C136.138 4.72046 135.751 5.87988 135.751 7.24633C135.751 8.24011 136.052 9.44093 136.655 10.766ZM146.419 31.1799C145.042 32.4635 143.967 33.1675 142.418 33.9128C140.698 34.741 138.633 35.155 136.224 35.155C134.891 35.155 133.644 34.9894 132.482 34.6996C131.321 34.4097 130.288 33.8714 129.428 33.2089C128.568 32.5464 127.837 31.6768 127.321 30.6416C126.804 29.6064 126.546 28.4056 126.546 27.0392C126.546 25.9626 126.804 24.9274 127.235 23.8922C127.708 22.857 128.353 21.8632 129.213 20.9522C130.03 20.0413 131.02 19.1717 132.138 18.4264C133.256 17.681 134.504 17.0185 135.837 16.5216L136.009 16.4388L135.923 16.3146C134.934 14.9481 134.117 13.6231 133.471 12.3395C132.826 11.0972 132.525 9.85501 132.525 8.61278C132.525 7.57759 132.74 6.62521 133.127 5.75565C133.515 4.8861 134.074 4.09935 134.762 3.43683C135.45 2.77431 136.267 2.23601 137.214 1.86334C138.16 1.49067 139.192 1.28364 140.354 1.28364C142.289 1.28364 143.924 1.73912 145.171 2.65009C146.419 3.56105 147.064 4.9275 147.064 6.66662C147.064 7.57759 146.849 8.44715 146.419 9.2753C145.988 10.1035 145.386 10.9316 144.698 11.6355C144.01 12.3809 143.236 13.0434 142.418 13.6645C141.601 14.2856 136.655 17.3498 136.655 17.3498C134.762 18.4264 133.256 19.6686 132.181 20.9522C131.106 22.2773 130.547 23.975 130.547 26.0454C130.547 26.9563 130.762 27.8673 131.106 28.6955C131.493 29.565 132.009 30.3104 132.697 30.9729C133.385 31.6354 134.203 32.1737 135.149 32.5464C136.095 32.919 137.128 33.1261 138.246 33.1261C140.01 33.1261 141.558 32.7948 142.805 32.1737C143.881 31.6354 144.655 31.1385 145.687 30.1447L146.419 31.1799ZM150.118 27.5775C151.537 26.004 152.828 24.4305 153.86 22.9812C154.892 21.5319 155.968 19.9999 157 18.4678C156.656 18.2193 156.312 17.9709 156.011 17.681C155.71 17.4326 155.452 17.1013 155.279 16.7701C154.505 18.4678 153.602 20.0413 152.613 21.5319C151.58 23.064 150.462 24.7203 149.215 26.3766L149.128 26.5009L148.999 26.3766C147.451 24.7617 145.945 23.0226 144.44 21.1593C142.978 19.3373 142.117 18.385 140.612 16.4802L137.515 18.5092C138.934 20.4139 139.967 21.7804 141.429 23.5609C142.978 25.5071 144.655 27.4946 146.419 29.4822C146.419 29.4822 148.87 32.2151 149.43 32.9604C149.946 33.6644 150.376 34.2027 150.634 34.5753C151.107 34.5339 151.58 34.4925 152.053 34.4925H155.193C155.624 34.4925 156.054 34.4925 156.484 34.5339L150.032 27.7017L150.118 27.5775ZM126.761 10.9316C126.632 11.3457 126.546 11.9254 126.503 12.6707C126.46 13.4575 126.46 14.1614 126.46 14.8239L126.245 14.9481C126.03 14.7825 125.729 14.6169 125.256 14.4512C124.74 14.2856 124.224 14.2028 123.664 14.2028C122.804 14.2028 122.03 14.4098 121.385 14.7825C120.696 15.1552 120.137 15.6521 119.664 16.2732C119.191 16.8943 118.847 17.6396 118.589 18.5092C118.331 19.3788 118.202 20.2897 118.202 21.2421V26.7079C118.202 28.9853 118.202 30.6416 118.245 31.801C118.245 32.8776 118.331 33.7886 118.417 34.4925C117.083 34.3683 115.707 34.3683 114.502 34.4925C114.588 33.3745 114.632 31.8838 114.675 30.0619C114.675 28.0743 114.718 25.6727 114.718 22.9398V21.3663C114.718 20.0827 114.718 18.592 114.675 16.8943C114.675 15.238 114.588 13.3332 114.502 11.2629C114.804 11.3043 115.105 11.3457 115.406 11.3871C116.051 11.4699 116.997 11.5113 117.771 11.3871C118.073 11.3457 118.374 11.3043 118.675 11.2629C118.503 12.5465 118.417 16.0247 118.417 16.0247L118.546 16.0661L118.632 15.9419C120.61 12.4223 122.847 10.7246 125.299 10.7246C125.6 10.7246 125.858 10.7246 126.073 10.766C126.245 10.766 126.503 10.8488 126.761 10.9316ZM99.7488 21.0351C98.6304 21.0351 97.5121 21.0351 96.3507 20.9936C95.1893 20.9522 94.071 20.9108 93.0386 20.9108H92.8666V20.7452C92.9526 19.8342 93.1247 18.8819 93.4258 17.8467C93.7268 16.8115 94.157 15.8591 94.7162 15.031C95.2753 14.1614 96.0496 13.4575 96.9099 12.8778C97.8132 12.2981 98.9315 12.0082 100.222 12.0082C101.598 12.0082 102.717 12.2981 103.577 12.8778C104.437 13.4575 105.082 14.2028 105.556 15.0724C106.029 15.9419 106.33 16.8943 106.502 17.8881C106.674 18.8819 106.717 19.8342 106.717 20.7452V20.8694H106.588C105.47 20.9108 104.351 20.9522 103.19 20.9522C102.072 20.9936 100.91 21.0351 99.7488 21.0351ZM110.631 22.4843C110.674 22.1945 110.674 21.9046 110.674 21.6562C110.674 21.3249 110.717 21.0351 110.717 20.7038C110.717 19.3373 110.502 18.0123 110.072 16.8115C109.642 15.6107 108.997 14.5341 108.136 13.6645C107.276 12.7535 106.158 12.0496 104.867 11.5113C103.577 10.973 101.985 10.6832 100.179 10.6832C96.3937 10.6832 93.4688 11.8426 91.4901 14.12C89.5115 16.3974 88.5222 19.5858 88.5222 23.6437C88.5222 25.2586 88.8233 26.8321 89.4255 28.1986C90.0277 29.6064 90.8879 30.8072 91.9633 31.8424C93.0816 32.8776 94.3721 33.6644 95.8775 34.2027C97.383 34.741 99.0606 35.0308 100.91 35.0308C102.545 35.0308 104.136 34.741 105.642 34.2027C107.147 33.6644 108.395 33.0018 109.384 32.2151L109.685 29.9377L109.599 29.8963C109.169 30.3518 108.653 30.8072 108.093 31.2213C107.491 31.6354 106.846 32.0495 106.115 32.3393C105.427 32.6706 104.695 32.919 103.964 33.0847C103.233 33.2503 102.502 33.3745 101.813 33.3745C100.351 33.3745 99.0605 33.1261 97.9422 32.6292C96.8238 32.1323 95.8775 31.4698 95.1033 30.6416C94.329 29.8135 93.7268 28.8197 93.3397 27.7017C92.9526 26.5837 92.7375 25.3414 92.7375 24.0164V23.3539C92.7375 23.0226 92.7375 22.7742 92.7805 22.5671L92.8236 22.4429L96.3077 22.3601C97.426 22.3187 98.5874 22.3187 99.7057 22.3187C101.512 22.3187 103.405 22.3187 105.255 22.3601C107.018 22.4015 108.782 22.4429 110.631 22.4843ZM84.3068 28.4056V31.6354C84.3068 32.1737 84.3068 32.712 84.3499 33.2089C84.3499 33.6644 84.3929 34.0784 84.4359 34.5339C83.1885 34.4097 81.769 34.4097 80.4786 34.5339C80.5647 32.8776 80.6077 31.1385 80.6937 29.358C80.7797 27.536 80.8227 25.6313 80.8227 23.7265V20.7038C80.8227 18.1779 80.3066 16.2732 79.3173 14.9895C78.2849 13.6645 76.8655 13.002 75.0589 13.002C72.6071 13.002 70.8005 13.7473 69.6392 15.1966C68.5208 16.6459 67.9186 18.6748 67.9186 21.2835V25.5071C67.9186 26.9977 67.9616 28.5712 68.0047 30.2275C68.0477 31.801 68.1767 33.2503 68.3058 34.5339C67.5745 34.4925 66.8433 34.4511 66.1551 34.4511C65.4668 34.4511 64.7356 34.4925 64.0044 34.5339C64.1764 33.2503 64.2625 31.801 64.3055 30.2275C64.3485 28.6126 64.3915 26.9977 64.3915 25.5071V20.3311C64.3915 18.8405 64.3485 17.267 64.3055 15.6107C64.2625 14.0372 64.1334 12.5465 64.0044 11.18C64.8647 11.3043 65.811 11.3871 66.3271 11.3871C66.6282 11.3871 66.9293 11.3457 67.2734 11.3043L68.2627 11.1386C68.1767 12.4223 68.1767 15.1138 68.1767 15.1138H68.2627L68.3058 15.031C69.2521 13.6231 70.4134 12.5465 71.7038 11.7598C73.0373 11.0144 74.6288 10.6003 76.4353 10.6003C77.3816 10.6003 78.371 10.7246 79.3173 10.973C80.2636 11.2215 81.1668 11.6769 81.9411 12.2981C82.7153 12.9192 83.3605 13.7887 83.8337 14.8653C84.3068 15.9419 84.5649 17.3498 84.5649 19.0475C84.5649 20.4553 84.5219 21.946 84.4789 23.4367C84.3499 25.093 84.3068 26.7079 84.3068 28.4056ZM55.4447 26.9977C55.1866 28.2814 54.7134 29.4822 54.1112 30.5174C53.466 31.5526 52.6488 32.3807 51.5734 32.9604C50.5411 33.5816 49.2077 33.8714 47.6592 33.8714C46.1107 33.8714 44.8203 33.5816 43.7449 32.9604C42.7126 32.3393 41.8523 31.5112 41.2071 30.5174C40.5619 29.4822 40.1318 28.3228 39.8737 26.9977C39.6156 25.7141 39.4866 24.3477 39.4866 22.9398C39.4866 21.5319 39.6156 20.1655 39.8737 18.8819C40.1318 17.5982 40.5619 16.3974 41.2071 15.3622C41.8523 14.327 42.6696 13.4989 43.7449 12.9192C44.7773 12.2981 46.1107 12.0082 47.6592 12.0082C49.2077 12.0082 50.4981 12.2981 51.5734 12.9192C52.6058 13.5403 53.466 14.3684 54.1112 15.3622C54.7564 16.3974 55.1866 17.5568 55.4447 18.8819C55.7027 20.1655 55.8318 21.5319 55.8318 22.9398C55.8318 24.3063 55.7027 25.6727 55.4447 26.9977ZM56.0899 13.4575C54.8855 12.5051 53.5521 11.8012 52.1326 11.3457C50.6701 10.8902 49.1647 10.6832 47.7022 10.6832C46.2397 10.6832 44.7342 10.8902 43.2718 11.3457C41.8093 11.8012 40.4329 12.5051 39.2715 13.4575C38.0671 14.4098 37.1208 15.6935 36.3896 17.2256C35.6584 18.799 35.2712 20.7038 35.2712 22.9398C35.2712 25.1758 35.6584 27.0806 36.3896 28.6126C37.1208 30.1447 38.0671 31.4284 39.2715 32.3807C40.4329 33.3331 41.8093 34.037 43.2718 34.4097C46.2827 35.1964 49.2507 35.1964 52.1326 34.4097C53.5951 34.037 54.9285 33.3331 56.0899 32.3807C57.2512 31.4284 58.2405 30.1447 58.9718 28.6126C59.703 27.0806 60.0901 25.1344 60.0901 22.9398C60.0901 20.7038 59.703 18.799 58.9718 17.267C58.2405 15.6935 57.2942 14.4098 56.0899 13.4575ZM26.7975 33.4987C25.8082 32.505 25.2921 31.0143 25.2921 29.0681C25.2921 28.1572 25.2921 27.2048 25.3351 26.1696C25.3781 25.1344 25.4211 23.975 25.4641 22.7328C25.5071 21.4905 25.5501 20.0827 25.5932 18.592C25.6362 17.0599 25.6362 15.3622 25.6362 13.5403V13.4161H23.8296C23.5715 13.4161 23.2704 13.4161 22.9263 13.4575C22.6682 13.4575 22.4101 13.4989 22.109 13.4989C22.109 13.3746 22.1521 13.209 22.1521 13.0848C22.1521 12.8778 22.1951 12.7121 22.1951 12.5051C22.1951 12.3395 22.1951 12.1738 22.1521 12.0082C22.1521 11.884 22.109 11.8012 22.109 11.6769C23.5715 11.7598 24.6468 11.8012 25.3351 11.8012H25.5071V11.6355C25.4641 10.973 25.4641 10.1449 25.4211 9.15108C25.4211 8.1987 25.3781 7.16351 25.2921 6.16973L29.4644 4.47202H29.5504C29.4644 5.67284 29.3784 6.87366 29.3353 8.03307C29.2923 9.23389 29.2063 10.4347 29.1633 11.6769V11.8426H29.3353C29.7225 11.8426 30.4107 11.8426 31.443 11.8012C32.4323 11.8012 33.5077 11.7598 34.626 11.6769C34.626 11.7598 34.626 11.9254 34.626 12.091V13.1262C34.626 13.2504 34.626 13.3747 34.626 13.4575C34.2389 13.4161 33.8518 13.4161 33.4216 13.4161C32.9485 13.4161 32.4323 13.3747 31.8731 13.3747H29.2493L29.2063 13.4989C29.1633 13.5817 29.1633 13.8715 29.0773 15.1138C29.0342 16.0661 28.9912 17.1841 28.9482 18.4264C28.9052 19.6686 28.9052 21.0351 28.8622 22.4429C28.8622 23.8508 28.8192 25.093 28.8192 26.1696C28.8192 27.0806 28.8622 28.0329 28.9052 28.9025C28.9482 29.8135 29.1203 30.6416 29.4214 31.3455C29.7225 32.0909 30.1526 32.6706 30.7118 33.1261C31.271 33.5816 32.1312 33.7886 33.1636 33.7886C33.4647 33.7886 33.8088 33.7472 34.2819 33.7058C34.669 33.6644 35.0132 33.5816 35.3142 33.4987V34.3683C34.7551 34.4511 34.1529 34.5753 33.5077 34.741C32.8195 34.9066 32.1312 34.948 31.486 34.948C29.3784 35.0308 27.7868 34.4925 26.7975 33.4987ZM3.22603 34.3683C4.51644 34.9066 6.23699 35.1964 8.34466 35.1964C10.3233 35.1964 12.0868 34.9066 13.6353 34.3683C15.1838 33.83 16.5173 33.0433 17.5496 32.0495C18.6249 31.0557 19.4422 29.8963 20.0014 28.5298C20.5605 27.2048 20.8616 26.1696 20.8616 24.6789C20.8616 23.3539 20.5175 22.1945 20.1734 21.2835C19.8293 20.3725 18.797 18.9647 16.9474 17.8881C15.743 17.2256 15.0978 16.9357 13.0762 16.149C11.6997 15.6107 10.1942 14.9067 8.98986 14.2856C7.74247 13.6645 6.71014 12.9192 5.89288 12.0082C5.07562 11.0972 4.55945 9.44093 4.55945 7.86744C4.55945 6.95647 4.73151 6.08692 5.07562 5.34158C5.41973 4.55483 5.89288 2.85712 8.68877 1.73912C9.50603 1.40786 10.4093 1.24223 11.3986 1.28364C15.571 1.44927 16.6463 4.26498 16.9474 4.80328C17.2055 5.30017 17.4636 5.79706 17.6356 6.25255H18.0227C18.2378 5.34158 18.4099 4.55483 18.6249 3.97513C18.84 3.39542 19.0551 2.81572 19.3562 2.27742C18.3668 1.53208 17.2915 0.952375 16.1301 0.621114C14.9688 0.207038 13.5493 0 11.9148 0C10.1942 0 8.64575 0.248445 7.31233 0.703929C5.9789 1.15941 4.77452 1.82193 3.82822 2.60868C2.88192 3.43683 2.10767 4.3892 1.63452 5.50721C1.11836 6.62521 0.860274 7.90885 0.860274 9.2753C0.860274 11.18 1.2474 12.7535 2.06466 13.8715C2.8389 14.9895 3.87123 15.9419 5.0326 16.6873C6.23699 17.4326 7.5274 18.0537 8.90384 18.5506C10.2803 19.0475 11.6137 19.5858 12.8181 20.2069C14.0225 20.828 15.0548 21.5734 15.8721 22.4843C16.6893 23.3953 17.1195 24.6375 17.1195 26.211C17.1195 27.2048 16.9474 28.1986 16.6033 29.0681C16.2592 29.9791 15.743 30.7658 15.0978 31.387C14.4526 32.0495 13.6353 32.5878 12.7321 32.9604C11.7858 33.3331 10.7534 33.5401 9.59205 33.5401C8.4737 33.5401 7.44137 33.3745 6.53808 33.0433C5.63479 32.712 4.81753 32.2979 4.12932 31.801C3.4411 31.3041 2.88192 30.7244 2.40877 30.1033C1.97863 29.5236 1.59151 28.9025 1.33342 28.3642H0.946301C0.860274 29.2752 0.731233 30.0205 0.602192 30.6002C0.473151 31.1799 0.258082 31.8838 0 32.5878C0.860274 33.2503 1.93562 33.83 3.22603 34.3683Z"
    fill="currentColor" />
</svg>